<svg width="26" height="26" viewBox="0 0 26 26" fill="none" xmlns="http://www.w3.org/2000/svg">
<path d="M21.6667 21.6666C21.954 21.6666 22.2295 21.7808 22.4327 21.9839C22.6359 22.1871 22.75 22.4626 22.75 22.75C22.75 23.0373 22.6359 23.3128 22.4327 23.516C22.2295 23.7192 21.954 23.8333 21.6667 23.8333C21.3793 23.8333 21.1038 23.7192 20.9006 23.516C20.6975 23.3128 20.5833 23.0373 20.5833 22.75C20.5833 22.4626 20.6975 22.1871 20.9006 21.9839C21.1038 21.7808 21.3793 21.6666 21.6667 21.6666ZM17.3333 21.6666C17.6207 21.6666 17.8962 21.7808 18.0994 21.9839C18.3025 22.1871 18.4167 22.4626 18.4167 22.75C18.4167 23.0373 18.3025 23.3128 18.0994 23.516C17.8962 23.7192 17.6207 23.8333 17.3333 23.8333C17.046 23.8333 16.7705 23.7192 16.5673 23.516C16.3641 23.3128 16.25 23.0373 16.25 22.75C16.25 22.4626 16.3641 22.1871 16.5673 21.9839C16.7705 21.7808 17.046 21.6666 17.3333 21.6666ZM13 21.6666C13.2873 21.6666 13.5629 21.7808 13.766 21.9839C13.9692 22.1871 14.0833 22.4626 14.0833 22.75C14.0833 23.0373 13.9692 23.3128 13.766 23.516C13.5629 23.7192 13.2873 23.8333 13 23.8333C12.7127 23.8333 12.4371 23.7192 12.234 23.516C12.0308 23.3128 11.9167 23.0373 11.9167 22.75C11.9167 22.4626 12.0308 22.1871 12.234 21.9839C12.4371 21.7808 12.7127 21.6666 13 21.6666ZM8.66667 21.6666C8.95398 21.6666 9.22953 21.7808 9.4327 21.9839C9.63586 22.1871 9.75 22.4626 9.75 22.75C9.75 23.0373 9.63586 23.3128 9.4327 23.516C9.22953 23.7192 8.95398 23.8333 8.66667 23.8333C8.37935 23.8333 8.1038 23.7192 7.90063 23.516C7.69747 23.3128 7.58333 23.0373 7.58333 22.75C7.58333 22.4626 7.69747 22.1871 7.90063 21.9839C8.1038 21.7808 8.37935 21.6666 8.66667 21.6666ZM4.33333 21.6666C4.62065 21.6666 4.8962 21.7808 5.09937 21.9839C5.30253 22.1871 5.41667 22.4626 5.41667 22.75C5.41667 23.0373 5.30253 23.3128 5.09937 23.516C4.8962 23.7192 4.62065 23.8333 4.33333 23.8333C4.04602 23.8333 3.77047 23.7192 3.5673 23.516C3.36414 23.3128 3.25 23.0373 3.25 22.75C3.25 22.4626 3.36414 22.1871 3.5673 21.9839C3.77047 21.7808 4.04602 21.6666 4.33333 21.6666ZM6.5 18.4166C6.78732 18.4166 7.06287 18.5308 7.26603 18.7339C7.4692 18.9371 7.58333 19.2126 7.58333 19.5C7.58333 19.7873 7.4692 20.0628 7.26603 20.266C7.06287 20.4692 6.78732 20.5833 6.5 20.5833C6.21268 20.5833 5.93713 20.4692 5.73397 20.266C5.5308 20.0628 5.41667 19.7873 5.41667 19.5C5.41667 19.2126 5.5308 18.9371 5.73397 18.7339C5.93713 18.5308 6.21268 18.4166 6.5 18.4166ZM10.8333 18.4166C11.1207 18.4166 11.3962 18.5308 11.5994 18.7339C11.8025 18.9371 11.9167 19.2126 11.9167 19.5C11.9167 19.7873 11.8025 20.0628 11.5994 20.266C11.3962 20.4692 11.1207 20.5833 10.8333 20.5833C10.546 20.5833 10.2705 20.4692 10.0673 20.266C9.86414 20.0628 9.75 19.7873 9.75 19.5C9.75 19.2126 9.86414 18.9371 10.0673 18.7339C10.2705 18.5308 10.546 18.4166 10.8333 18.4166ZM15.1667 18.4166C15.454 18.4166 15.7295 18.5308 15.9327 18.7339C16.1359 18.9371 16.25 19.2126 16.25 19.5C16.25 19.7873 16.1359 20.0628 15.9327 20.266C15.7295 20.4692 15.454 20.5833 15.1667 20.5833C14.8793 20.5833 14.6038 20.4692 14.4006 20.266C14.1975 20.0628 14.0833 19.7873 14.0833 19.5C14.0833 19.2126 14.1975 18.9371 14.4006 18.7339C14.6038 18.5308 14.8793 18.4166 15.1667 18.4166ZM19.5 18.4166C19.7873 18.4166 20.0629 18.5308 20.266 18.7339C20.4692 18.9371 20.5833 19.2126 20.5833 19.5C20.5833 19.7873 20.4692 20.0628 20.266 20.266C20.0629 20.4692 19.7873 20.5833 19.5 20.5833C19.2127 20.5833 18.9371 20.4692 18.734 20.266C18.5308 20.0628 18.4167 19.7873 18.4167 19.5C18.4167 19.2126 18.5308 18.9371 18.734 18.7339C18.9371 18.5308 19.2127 18.4166 19.5 18.4166ZM8.66667 15.1666C8.95398 15.1666 9.22953 15.2808 9.4327 15.4839C9.63586 15.6871 9.75 15.9626 9.75 16.25C9.75 16.5373 9.63586 16.8128 9.4327 17.016C9.22953 17.2192 8.95398 17.3333 8.66667 17.3333C8.37935 17.3333 8.1038 17.2192 7.90063 17.016C7.69747 16.8128 7.58333 16.5373 7.58333 16.25C7.58333 15.9626 7.69747 15.6871 7.90063 15.4839C8.1038 15.2808 8.37935 15.1666 8.66667 15.1666ZM13 15.1666C13.2873 15.1666 13.5629 15.2808 13.766 15.4839C13.9692 15.6871 14.0833 15.9626 14.0833 16.25C14.0833 16.5373 13.9692 16.8128 13.766 17.016C13.5629 17.2192 13.2873 17.3333 13 17.3333C12.7127 17.3333 12.4371 17.2192 12.234 17.016C12.0308 16.8128 11.9167 16.5373 11.9167 16.25C11.9167 15.9626 12.0308 15.6871 12.234 15.4839C12.4371 15.2808 12.7127 15.1666 13 15.1666ZM17.3333 15.1666C17.6207 15.1666 17.8962 15.2808 18.0994 15.4839C18.3025 15.6871 18.4167 15.9626 18.4167 16.25C18.4167 16.5373 18.3025 16.8128 18.0994 17.016C17.8962 17.2192 17.6207 17.3333 17.3333 17.3333C17.046 17.3333 16.7705 17.2192 16.5673 17.016C16.3641 16.8128 16.25 16.5373 16.25 16.25C16.25 15.9626 16.3641 15.6871 16.5673 15.4839C16.7705 15.2808 17.046 15.1666 17.3333 15.1666ZM20.5833 13H5.41667V10.8333H20.5833V13ZM19.4133 9.74996H6.58667C7.04167 7.04163 9.20833 4.87496 11.9167 4.41996V2.16663H14.0833V4.41996C16.7917 4.87496 18.9583 7.04163 19.4133 9.74996Z" fill="#85BE54"/>
</svg>
