<svg width="40" height="40" viewBox="0 0 40 40" fill="none" xmlns="http://www.w3.org/2000/svg">
<circle cx="20" cy="20" r="13" fill="white"/>
<g filter="url(#filter0_d_1_438)">
<path d="M30.4145 18.4206L16.7073 18.4206L22.7042 12.4237L20.2712 9.99066L10.1279 20.134L20.2712 30.2773L22.7042 27.8443L16.7073 21.8474L30.4145 21.8474L30.4145 18.4206ZM3.00012 20.134C3.00012 17.8839 3.4433 15.6559 4.30437 13.5771C5.16543 11.4983 6.42751 9.60946 8.01854 8.01842C11.2318 4.80518 15.5899 3 20.1341 3C24.6783 3 29.0364 4.80518 32.2496 8.01842C35.4629 11.2317 37.2681 15.5898 37.2681 20.134C37.2681 22.384 36.8249 24.6121 35.9638 26.6909C35.1028 28.7696 33.8407 30.6585 32.2496 32.2495C30.6586 33.8406 28.7698 35.1026 26.691 35.9637C24.6122 36.8248 22.3842 37.2679 20.1341 37.2679C15.5899 37.2679 11.2318 35.4628 8.01854 32.2495C4.8053 29.0363 3.00012 24.6782 3.00012 20.134Z" fill="#191919"/>
</g>
<defs>
<filter id="filter0_d_1_438" x="0.71547" y="0.71547" width="38.8371" height="38.837" filterUnits="userSpaceOnUse" color-interpolation-filters="sRGB">
<feFlood flood-opacity="0" result="BackgroundImageFix"/>
<feColorMatrix in="SourceAlpha" type="matrix" values="0 0 0 0 0 0 0 0 0 0 0 0 0 0 0 0 0 0 127 0" result="hardAlpha"/>
<feOffset/>
<feGaussianBlur stdDeviation="1.14226"/>
<feComposite in2="hardAlpha" operator="out"/>
<feColorMatrix type="matrix" values="0 0 0 0 1 0 0 0 0 1 0 0 0 0 1 0 0 0 0.25 0"/>
<feBlend mode="normal" in2="BackgroundImageFix" result="effect1_dropShadow_1_438"/>
<feBlend mode="normal" in="SourceGraphic" in2="effect1_dropShadow_1_438" result="shape"/>
</filter>
</defs>
</svg>
