<svg width="28" height="28" viewBox="0 0 28 28" fill="none" xmlns="http://www.w3.org/2000/svg">
<g clip-path="url(#clip0_1_328)">
<path d="M2.645 10.997H5.4515V9.40752C5.4515 8.37552 6.0315 7.81852 7.0755 7.81852H11.193C12.237 7.81852 12.817 8.37552 12.817 9.40752V10.9965H15.322V9.40752C15.322 8.37552 15.902 7.81852 17.004 7.81852H20.8665C21.9685 7.81852 22.5485 8.37552 22.5485 9.40752V10.9965H25.3555V7.83002C25.3555 5.77702 24.2655 4.73352 22.2705 4.73352H5.73C3.7465 4.73352 2.645 5.77702 2.645 7.83002V10.997ZM0 22.4335C0 23.002 0.371 23.3615 0.951 23.3615H1.601C2.169 23.3615 2.54 23.0015 2.54 22.4335V20.7865C2.6675 20.8215 3.039 20.8445 3.3055 20.8445H24.7055C24.9725 20.8445 25.3325 20.821 25.46 20.7865V22.4335C25.46 23.002 25.831 23.3615 26.3995 23.3615H27.0605C27.629 23.3615 28 23.0015 28 22.4335V15.8335C28 13.734 26.8285 12.586 24.706 12.586H3.294C1.1715 12.586 0 13.734 0 15.8335V22.4335Z" fill="#85BE54"/>
</g>
<defs>
<clipPath id="clip0_1_328">
<rect width="28" height="28" fill="white"/>
</clipPath>
</defs>
</svg>
