<svg width="28" height="28" viewBox="0 0 28 28" fill="none" xmlns="http://www.w3.org/2000/svg">
<path d="M25.5391 2.47188C25.3124 2.24254 25.0423 2.06061 24.7446 1.93668C24.4468 1.81274 24.1274 1.74929 23.805 1.75001H17.0822C16.6412 1.75083 16.2183 1.92552 15.9053 2.23618L2.46589 15.6729C2.00731 16.1324 1.74976 16.7551 1.74976 17.4043C1.74976 18.0535 2.00731 18.6762 2.46589 19.1357L8.86433 25.5341C9.32396 25.9929 9.94686 26.2506 10.5963 26.2506C11.2457 26.2506 11.8686 25.9929 12.3282 25.5341L25.7622 12.1029C26.0735 11.7904 26.2488 11.3676 26.25 10.9266V4.20001C26.252 3.87921 26.1902 3.56122 26.0681 3.26454C25.9461 2.96786 25.7662 2.69841 25.5391 2.47188ZM21 8.75001C20.6539 8.75001 20.3156 8.64737 20.0278 8.45508C19.74 8.26278 19.5157 7.98947 19.3832 7.6697C19.2508 7.34993 19.2161 6.99806 19.2837 6.6586C19.3512 6.31913 19.5179 6.00731 19.7626 5.76257C20.0073 5.51783 20.3192 5.35116 20.6586 5.28363C20.9981 5.21611 21.35 5.25076 21.6697 5.38322C21.9895 5.51567 22.2628 5.73997 22.4551 6.02776C22.6474 6.31554 22.75 6.65389 22.75 7.00001C22.75 7.46413 22.5657 7.90925 22.2375 8.23744C21.9093 8.56563 21.4642 8.75001 21 8.75001Z" fill="#85BE54"/>
</svg>
