<svg width="220" height="67" viewBox="0 0 220 67" fill="none" xmlns="http://www.w3.org/2000/svg">
<path d="M88.5348 28.2695V19.1825H94.0189V20.1586H89.6352V23.2291H93.735V24.2052H89.6352V27.2934H94.0899V28.2695H88.5348ZM106.657 21.4542C106.604 21.0046 106.388 20.6556 106.009 20.4071C105.63 20.1586 105.166 20.0344 104.616 20.0344C104.214 20.0344 103.862 20.0995 103.56 20.2296C103.261 20.3598 103.027 20.5387 102.859 20.7665C102.693 20.9943 102.61 21.2531 102.61 21.543C102.61 21.7855 102.668 21.9941 102.783 22.1686C102.902 22.3402 103.053 22.4836 103.236 22.599C103.419 22.7114 103.612 22.8046 103.813 22.8785C104.014 22.9495 104.199 23.0072 104.367 23.0516L105.29 23.3001C105.527 23.3622 105.79 23.448 106.08 23.5574C106.373 23.6668 106.652 23.8162 106.919 24.0055C107.188 24.1919 107.41 24.4315 107.584 24.7243C107.759 25.0172 107.846 25.3766 107.846 25.8025C107.846 26.2936 107.717 26.7373 107.46 27.1337C107.206 27.53 106.833 27.8451 106.342 28.0787C105.854 28.3124 105.261 28.4293 104.563 28.4293C103.912 28.4293 103.348 28.3243 102.872 28.1142C102.399 27.9042 102.026 27.6114 101.754 27.2357C101.485 26.86 101.332 26.4237 101.297 25.9268H102.433C102.462 26.2699 102.578 26.5539 102.779 26.7787C102.983 27.0005 103.24 27.1662 103.551 27.2756C103.864 27.3821 104.202 27.4354 104.563 27.4354C104.983 27.4354 105.36 27.3673 105.694 27.2313C106.028 27.0922 106.293 26.9 106.488 26.6545C106.683 26.406 106.781 26.1161 106.781 25.7848C106.781 25.4831 106.697 25.2376 106.528 25.0482C106.36 24.8589 106.138 24.7051 105.863 24.5868C105.588 24.4685 105.29 24.3649 104.971 24.2762L103.853 23.9567C103.143 23.7526 102.581 23.4613 102.167 23.0826C101.752 22.704 101.545 22.2085 101.545 21.5962C101.545 21.0875 101.683 20.6437 101.958 20.2651C102.236 19.8835 102.609 19.5877 103.076 19.3777C103.547 19.1647 104.072 19.0582 104.651 19.0582C105.237 19.0582 105.758 19.1633 106.213 19.3733C106.669 19.5803 107.03 19.8643 107.296 20.2252C107.565 20.5861 107.707 20.9958 107.722 21.4542H106.657ZM115.34 19.1825H116.654L119.742 26.7254H119.848L122.936 19.1825H124.25V28.2695H123.22V21.3655H123.132L120.292 28.2695H119.298L116.458 21.3655H116.37V28.2695H115.34V19.1825ZM132.141 28.2695V19.1825H137.625V20.1586H133.242V23.2291H137.341V24.2052H133.242V27.2934H137.696V28.2695H132.141ZM145.294 28.2695V19.1825H148.364C149.074 19.1825 149.657 19.3038 150.112 19.5463C150.568 19.7859 150.905 20.1157 151.124 20.5358C151.343 20.9558 151.452 21.4335 151.452 21.9689C151.452 22.5043 151.343 22.9791 151.124 23.3932C150.905 23.8074 150.569 24.1327 150.117 24.3694C149.664 24.6031 149.086 24.7199 148.382 24.7199H145.897V23.726H148.347C148.832 23.726 149.222 23.655 149.518 23.513C149.817 23.371 150.033 23.1699 150.166 22.9096C150.302 22.6463 150.37 22.3328 150.37 21.9689C150.37 21.6051 150.302 21.2871 150.166 21.015C150.03 20.7428 149.812 20.5328 149.513 20.3849C149.215 20.2341 148.82 20.1586 148.329 20.1586H146.394V28.2695H145.294ZM149.571 24.1875L151.807 28.2695H150.53L148.329 24.1875H149.571ZM159.344 28.2695H158.19L161.527 19.1825H162.663L165.999 28.2695H164.846L162.13 20.6201H162.059L159.344 28.2695ZM159.77 24.7199H164.42V25.6961H159.77V24.7199ZM173.1 28.2695V19.1825H174.2V27.2934H178.424V28.2695H173.1ZM188.617 28.2695H185.813V19.1825H188.742C189.623 19.1825 190.377 19.3644 191.005 19.7282C191.632 20.0891 192.112 20.6083 192.447 21.2856C192.781 21.9601 192.948 22.7676 192.948 23.7083C192.948 24.6548 192.779 25.4698 192.442 26.1531C192.105 26.8334 191.614 27.357 190.969 27.7238C190.324 28.0876 189.54 28.2695 188.617 28.2695ZM186.914 27.2934H188.546C189.298 27.2934 189.92 27.1484 190.414 26.8586C190.908 26.5687 191.277 26.156 191.519 25.6206C191.762 25.0852 191.883 24.4478 191.883 23.7083C191.883 22.9747 191.763 22.3431 191.524 21.8136C191.284 21.2812 190.926 20.873 190.45 20.589C189.974 20.3021 189.381 20.1586 188.671 20.1586H186.914V27.2934ZM200.425 28.2695H199.271L202.608 19.1825H203.743L207.08 28.2695H205.926L203.211 20.6201H203.14L200.425 28.2695ZM200.85 24.7199H205.501V25.6961H200.85V24.7199Z" fill="black"/>
<path d="M111.536 61.6204H110.258L113.13 53.6415H114.521L117.392 61.6204H116.114L113.858 55.0908H113.796L111.536 61.6204ZM111.751 58.4959H115.896V59.5088H111.751V58.4959ZM122.837 57.0972L121.781 57.2842C121.737 57.1492 121.667 57.0206 121.571 56.8985C121.477 56.7764 121.35 56.6765 121.189 56.5985C121.028 56.5206 120.827 56.4817 120.585 56.4817C120.255 56.4817 119.98 56.5557 119.759 56.7037C119.539 56.8492 119.428 57.0375 119.428 57.2686C119.428 57.4686 119.502 57.6297 119.65 57.7517C119.798 57.8738 120.037 57.9738 120.367 58.0517L121.318 58.2699C121.868 58.3972 122.279 58.5933 122.549 58.8582C122.819 59.1231 122.954 59.4672 122.954 59.8906C122.954 60.249 122.85 60.5685 122.642 60.849C122.437 61.1269 122.15 61.3451 121.781 61.5035C121.415 61.6619 120.991 61.7412 120.507 61.7412C119.837 61.7412 119.291 61.5983 118.867 61.3126C118.444 61.0243 118.184 60.6152 118.088 60.0854L119.214 59.914C119.284 60.2075 119.428 60.4295 119.646 60.5802C119.865 60.7282 120.149 60.8022 120.5 60.8022C120.881 60.8022 121.187 60.723 121.415 60.5646C121.644 60.4036 121.758 60.2075 121.758 59.9763C121.758 59.7893 121.688 59.6322 121.548 59.5049C121.41 59.3776 121.198 59.2815 120.913 59.2166L119.9 58.9945C119.341 58.8673 118.928 58.6647 118.661 58.3868C118.396 58.1089 118.263 57.7569 118.263 57.331C118.263 56.9777 118.362 56.6687 118.559 56.4037C118.757 56.1388 119.03 55.9323 119.378 55.7843C119.726 55.6336 120.124 55.5583 120.574 55.5583C121.22 55.5583 121.729 55.6986 122.101 55.9791C122.472 56.257 122.718 56.6297 122.837 57.0972ZM126.759 61.7412C126.17 61.7412 125.662 61.6152 125.236 61.3633C124.812 61.1087 124.485 60.7516 124.254 60.2919C124.025 59.8296 123.911 59.288 123.911 58.6673C123.911 58.0543 124.025 57.5141 124.254 57.0466C124.485 56.5791 124.807 56.2141 125.22 55.9518C125.636 55.6895 126.121 55.5583 126.677 55.5583C127.015 55.5583 127.342 55.6142 127.659 55.7258C127.976 55.8375 128.26 56.0128 128.512 56.2518C128.764 56.4907 128.963 56.8011 129.108 57.1829C129.254 57.5621 129.327 58.0231 129.327 58.566V58.9789H124.57V58.1063H128.185C128.185 57.7998 128.123 57.5284 127.998 57.292C127.873 57.0531 127.698 56.8648 127.472 56.7271C127.249 56.5894 126.986 56.5206 126.685 56.5206C126.358 56.5206 126.072 56.6011 125.828 56.7622C125.586 56.9206 125.399 57.1284 125.267 57.3855C125.137 57.64 125.072 57.9167 125.072 58.2153V58.8971C125.072 59.2971 125.142 59.6374 125.283 59.9179C125.425 60.1984 125.624 60.4127 125.879 60.5607C126.133 60.7061 126.431 60.7789 126.771 60.7789C126.992 60.7789 127.193 60.7477 127.375 60.6854C127.556 60.6204 127.714 60.5243 127.846 60.3971C127.979 60.2698 128.08 60.1127 128.15 59.9257L129.252 60.1244C129.164 60.449 129.006 60.7334 128.777 60.9776C128.551 61.2191 128.267 61.4074 127.924 61.5425C127.584 61.6749 127.195 61.7412 126.759 61.7412ZM135.048 57.0972L133.993 57.2842C133.948 57.1492 133.878 57.0206 133.782 56.8985C133.689 56.7764 133.561 56.6765 133.4 56.5985C133.239 56.5206 133.038 56.4817 132.797 56.4817C132.467 56.4817 132.191 56.5557 131.971 56.7037C131.75 56.8492 131.639 57.0375 131.639 57.2686C131.639 57.4686 131.713 57.6297 131.861 57.7517C132.01 57.8738 132.248 57.9738 132.578 58.0517L133.529 58.2699C134.08 58.3972 134.49 58.5933 134.76 58.8582C135.03 59.1231 135.165 59.4672 135.165 59.8906C135.165 60.249 135.061 60.5685 134.854 60.849C134.648 61.1269 134.361 61.3451 133.993 61.5035C133.626 61.6619 133.202 61.7412 132.719 61.7412C132.048 61.7412 131.502 61.5983 131.078 61.3126C130.655 61.0243 130.395 60.6152 130.299 60.0854L131.425 59.914C131.495 60.2075 131.639 60.4295 131.858 60.5802C132.076 60.7282 132.36 60.8022 132.711 60.8022C133.093 60.8022 133.398 60.723 133.626 60.5646C133.855 60.4036 133.969 60.2075 133.969 59.9763C133.969 59.7893 133.899 59.6322 133.759 59.5049C133.621 59.3776 133.409 59.2815 133.124 59.2166L132.111 58.9945C131.552 58.8673 131.139 58.6647 130.872 58.3868C130.607 58.1089 130.475 57.7569 130.475 57.331C130.475 56.9777 130.573 56.6687 130.771 56.4037C130.968 56.1388 131.241 55.9323 131.589 55.7843C131.937 55.6336 132.335 55.5583 132.785 55.5583C133.432 55.5583 133.941 55.6986 134.312 55.9791C134.683 56.257 134.929 56.6297 135.048 57.0972ZM138.912 61.7412C138.351 61.7412 137.861 61.6126 137.443 61.3555C137.025 61.0983 136.7 60.7386 136.469 60.2763C136.238 59.814 136.122 59.2737 136.122 58.6556C136.122 58.0348 136.238 57.492 136.469 57.0271C136.7 56.5622 137.025 56.2011 137.443 55.944C137.861 55.6869 138.351 55.5583 138.912 55.5583C139.473 55.5583 139.962 55.6869 140.381 55.944C140.799 56.2011 141.123 56.5622 141.355 57.0271C141.586 57.492 141.701 58.0348 141.701 58.6556C141.701 59.2737 141.586 59.814 141.355 60.2763C141.123 60.7386 140.799 61.0983 140.381 61.3555C139.962 61.6126 139.473 61.7412 138.912 61.7412ZM138.916 60.7633C139.279 60.7633 139.581 60.6672 139.82 60.475C140.059 60.2828 140.235 60.027 140.349 59.7075C140.466 59.388 140.525 59.0361 140.525 58.6517C140.525 58.2699 140.466 57.9193 140.349 57.5998C140.235 57.2777 140.059 57.0193 139.82 56.8245C139.581 56.6297 139.279 56.5323 138.916 56.5323C138.55 56.5323 138.246 56.6297 138.004 56.8245C137.765 57.0193 137.587 57.2777 137.47 57.5998C137.356 57.9193 137.299 58.2699 137.299 58.6517C137.299 59.0361 137.356 59.388 137.47 59.7075C137.587 60.027 137.765 60.2828 138.004 60.475C138.246 60.6672 138.55 60.7633 138.916 60.7633ZM142.947 61.6204V55.6362H144.073V56.5868H144.135C144.244 56.2648 144.436 56.0115 144.712 55.8271C144.989 55.6401 145.304 55.5466 145.654 55.5466C145.727 55.5466 145.813 55.5492 145.912 55.5544C146.013 55.5596 146.092 55.5661 146.149 55.5739V56.6881C146.102 56.6752 146.019 56.6609 145.9 56.6453C145.78 56.6271 145.661 56.618 145.541 56.618C145.266 56.618 145.021 56.6765 144.805 56.7933C144.592 56.9076 144.423 57.0673 144.299 57.2725C144.174 57.4751 144.112 57.7063 144.112 57.966V61.6204H142.947ZM151.248 53.6415V61.6204H150.044V53.6415H151.248ZM154.018 58.0673V61.6204H152.853V55.6362H153.971V56.6102H154.045C154.183 56.2934 154.399 56.0388 154.692 55.8466C154.988 55.6544 155.361 55.5583 155.81 55.5583C156.218 55.5583 156.575 55.644 156.882 55.8155C157.188 55.9843 157.426 56.2362 157.595 56.5713C157.763 56.9063 157.848 57.3206 157.848 57.8141V61.6204H156.683V57.9543C156.683 57.5206 156.57 57.1816 156.344 56.9375C156.118 56.6907 155.808 56.5674 155.413 56.5674C155.143 56.5674 154.902 56.6258 154.692 56.7427C154.484 56.8596 154.319 57.031 154.197 57.2569C154.078 57.4803 154.018 57.7504 154.018 58.0673ZM159.355 61.6204V55.6362H160.473V56.6102H160.547C160.672 56.2804 160.876 56.0232 161.159 55.8388C161.442 55.6518 161.781 55.5583 162.176 55.5583C162.576 55.5583 162.911 55.6518 163.181 55.8388C163.454 56.0258 163.655 56.283 163.785 56.6102H163.847C163.99 56.2908 164.217 56.0362 164.529 55.8466C164.841 55.6544 165.212 55.5583 165.643 55.5583C166.186 55.5583 166.629 55.7284 166.972 56.0687C167.317 56.4089 167.49 56.9219 167.49 57.6076V61.6204H166.325V57.7167C166.325 57.3115 166.215 57.018 165.994 56.8362C165.773 56.6544 165.509 56.5635 165.203 56.5635C164.824 56.5635 164.529 56.6803 164.319 56.9141C164.108 57.1453 164.003 57.4427 164.003 57.8063V61.6204H162.842V57.6426C162.842 57.318 162.741 57.057 162.538 56.8596C162.336 56.6622 162.072 56.5635 161.747 56.5635C161.526 56.5635 161.323 56.6219 161.136 56.7388C160.951 56.8531 160.802 57.0128 160.688 57.218C160.576 57.4232 160.52 57.6608 160.52 57.9309V61.6204H159.355ZM171.517 61.7412C170.956 61.7412 170.466 61.6126 170.048 61.3555C169.63 61.0983 169.305 60.7386 169.074 60.2763C168.843 59.814 168.727 59.2737 168.727 58.6556C168.727 58.0348 168.843 57.492 169.074 57.0271C169.305 56.5622 169.63 56.2011 170.048 55.944C170.466 55.6869 170.956 55.5583 171.517 55.5583C172.078 55.5583 172.568 55.6869 172.986 55.944C173.404 56.2011 173.729 56.5622 173.96 57.0271C174.191 57.492 174.306 58.0348 174.306 58.6556C174.306 59.2737 174.191 59.814 173.96 60.2763C173.729 60.7386 173.404 61.0983 172.986 61.3555C172.568 61.6126 172.078 61.7412 171.517 61.7412ZM171.521 60.7633C171.884 60.7633 172.186 60.6672 172.425 60.475C172.664 60.2828 172.84 60.027 172.955 59.7075C173.071 59.388 173.13 59.0361 173.13 58.6517C173.13 58.2699 173.071 57.9193 172.955 57.5998C172.84 57.2777 172.664 57.0193 172.425 56.8245C172.186 56.6297 171.884 56.5323 171.521 56.5323C171.155 56.5323 170.851 56.6297 170.609 56.8245C170.37 57.0193 170.192 57.2777 170.075 57.5998C169.961 57.9193 169.904 58.2699 169.904 58.6517C169.904 59.0361 169.961 59.388 170.075 59.7075C170.192 60.027 170.37 60.2828 170.609 60.475C170.851 60.6672 171.155 60.7633 171.521 60.7633ZM175.645 61.6204V53.6415H176.81V56.6063H176.88C176.948 56.4817 177.045 56.3375 177.173 56.1739C177.3 56.0102 177.476 55.8674 177.702 55.7453C177.928 55.6207 178.227 55.5583 178.598 55.5583C179.082 55.5583 179.513 55.6804 179.892 55.9245C180.271 56.1687 180.569 56.5206 180.784 56.9803C181.002 57.4401 181.111 57.9933 181.111 58.64C181.111 59.2867 181.004 59.8412 180.788 60.3036C180.572 60.7633 180.276 61.1178 179.9 61.3672C179.523 61.6139 179.093 61.7373 178.61 61.7373C178.247 61.7373 177.949 61.6762 177.718 61.5542C177.489 61.4321 177.31 61.2892 177.18 61.1256C177.051 60.962 176.951 60.8165 176.88 60.6893H176.783V61.6204H175.645ZM176.787 58.6283C176.787 59.0491 176.848 59.4179 176.97 59.7348C177.092 60.0516 177.269 60.2997 177.5 60.4789C177.731 60.6555 178.014 60.7438 178.349 60.7438C178.697 60.7438 178.988 60.6516 179.222 60.4672C179.456 60.2802 179.632 60.027 179.752 59.7075C179.874 59.388 179.935 59.0283 179.935 58.6283C179.935 58.2335 179.875 57.879 179.756 57.5647C179.639 57.2505 179.462 57.0024 179.226 56.8206C178.992 56.6388 178.7 56.5479 178.349 56.5479C178.011 56.5479 177.726 56.6349 177.492 56.8089C177.261 56.9829 177.086 57.2258 176.966 57.5375C176.847 57.8491 176.787 58.2127 176.787 58.6283ZM182.365 61.6204V55.6362H183.529V61.6204H182.365ZM182.953 54.7129C182.75 54.7129 182.576 54.6454 182.431 54.5103C182.288 54.3727 182.217 54.209 182.217 54.0194C182.217 53.8272 182.288 53.6636 182.431 53.5285C182.576 53.3909 182.75 53.3221 182.953 53.3221C183.155 53.3221 183.328 53.3909 183.471 53.5285C183.616 53.6636 183.689 53.8272 183.689 54.0194C183.689 54.209 183.616 54.3727 183.471 54.5103C183.328 54.6454 183.155 54.7129 182.953 54.7129ZM186.207 53.6415V61.6204H185.042V53.6415H186.207ZM187.719 61.6204V55.6362H188.884V61.6204H187.719ZM188.307 54.7129C188.105 54.7129 187.931 54.6454 187.785 54.5103C187.642 54.3727 187.571 54.209 187.571 54.0194C187.571 53.8272 187.642 53.6636 187.785 53.5285C187.931 53.3909 188.105 53.3221 188.307 53.3221C188.51 53.3221 188.682 53.3909 188.825 53.5285C188.971 53.6636 189.044 53.8272 189.044 54.0194C189.044 54.209 188.971 54.3727 188.825 54.5103C188.682 54.6454 188.51 54.7129 188.307 54.7129ZM192.138 61.7529C191.758 61.7529 191.416 61.6827 191.109 61.5425C190.803 61.3996 190.56 61.1931 190.38 60.923C190.204 60.6529 190.116 60.3217 190.116 59.9296C190.116 59.5919 190.18 59.314 190.31 59.0958C190.44 58.8777 190.616 58.7049 190.836 58.5777C191.057 58.4504 191.304 58.3543 191.577 58.2894C191.849 58.2244 192.127 58.1751 192.41 58.1413C192.769 58.0998 193.06 58.066 193.283 58.04C193.506 58.0115 193.669 57.966 193.77 57.9037C193.871 57.8413 193.922 57.74 193.922 57.5998V57.5725C193.922 57.2323 193.826 56.9686 193.634 56.7816C193.444 56.5946 193.161 56.5011 192.784 56.5011C192.392 56.5011 192.083 56.5881 191.857 56.7622C191.634 56.9336 191.479 57.1245 191.393 57.3349L190.299 57.0855C190.429 56.7219 190.618 56.4284 190.867 56.205C191.119 55.9791 191.409 55.8155 191.736 55.7142C192.064 55.6103 192.408 55.5583 192.769 55.5583C193.008 55.5583 193.261 55.5869 193.528 55.644C193.799 55.6986 194.05 55.7999 194.284 55.9479C194.521 56.096 194.714 56.3076 194.865 56.583C195.015 56.8557 195.091 57.2102 195.091 57.6465V61.6204H193.953V60.8022H193.906C193.831 60.9529 193.718 61.1009 193.567 61.2464C193.417 61.3918 193.223 61.5126 192.987 61.6087C192.751 61.7048 192.467 61.7529 192.138 61.7529ZM192.391 60.8178C192.713 60.8178 192.988 60.7542 193.217 60.6269C193.448 60.4997 193.623 60.3334 193.743 60.1282C193.865 59.9205 193.926 59.6984 193.926 59.462V58.6907C193.884 58.7322 193.804 58.7712 193.684 58.8075C193.567 58.8413 193.434 58.8712 193.283 58.8971C193.132 58.9205 192.986 58.9426 192.843 58.9634C192.7 58.9815 192.58 58.9971 192.484 59.0101C192.258 59.0387 192.052 59.0867 191.865 59.1543C191.68 59.2218 191.532 59.3192 191.421 59.4465C191.312 59.5711 191.257 59.7374 191.257 59.9451C191.257 60.2334 191.364 60.4516 191.577 60.5997C191.79 60.7451 192.061 60.8178 192.391 60.8178ZM196.587 61.6204V55.6362H197.713V56.5868H197.776C197.885 56.2648 198.077 56.0115 198.352 55.8271C198.63 55.6401 198.944 55.5466 199.295 55.5466C199.368 55.5466 199.453 55.5492 199.552 55.5544C199.653 55.5596 199.733 55.5661 199.79 55.5739V56.6881C199.743 56.6752 199.66 56.6609 199.54 56.6453C199.421 56.6271 199.302 56.618 199.182 56.618C198.907 56.618 198.661 56.6765 198.446 56.7933C198.233 56.9076 198.064 57.0673 197.939 57.2725C197.815 57.4751 197.752 57.7063 197.752 57.966V61.6204H196.587ZM200.743 61.6204V55.6362H201.908V61.6204H200.743ZM201.331 54.7129C201.129 54.7129 200.955 54.6454 200.809 54.5103C200.666 54.3727 200.595 54.209 200.595 54.0194C200.595 53.8272 200.666 53.6636 200.809 53.5285C200.955 53.3909 201.129 53.3221 201.331 53.3221C201.534 53.3221 201.707 53.3909 201.849 53.5285C201.995 53.6636 202.068 53.8272 202.068 54.0194C202.068 54.209 201.995 54.3727 201.849 54.5103C201.707 54.6454 201.534 54.7129 201.331 54.7129ZM205.941 61.7412C205.38 61.7412 204.89 61.6126 204.472 61.3555C204.054 61.0983 203.729 60.7386 203.498 60.2763C203.267 59.814 203.151 59.2737 203.151 58.6556C203.151 58.0348 203.267 57.492 203.498 57.0271C203.729 56.5622 204.054 56.2011 204.472 55.944C204.89 55.6869 205.38 55.5583 205.941 55.5583C206.502 55.5583 206.991 55.6869 207.41 55.944C207.828 56.2011 208.152 56.5622 208.384 57.0271C208.615 57.492 208.73 58.0348 208.73 58.6556C208.73 59.2737 208.615 59.814 208.384 60.2763C208.152 60.7386 207.828 61.0983 207.41 61.3555C206.991 61.6126 206.502 61.7412 205.941 61.7412ZM205.945 60.7633C206.308 60.7633 206.61 60.6672 206.849 60.475C207.088 60.2828 207.264 60.027 207.378 59.7075C207.495 59.388 207.554 59.0361 207.554 58.6517C207.554 58.2699 207.495 57.9193 207.378 57.5998C207.264 57.2777 207.088 57.0193 206.849 56.8245C206.61 56.6297 206.308 56.5323 205.945 56.5323C205.579 56.5323 205.275 56.6297 205.033 56.8245C204.794 57.0193 204.616 57.2777 204.499 57.5998C204.385 57.9193 204.328 58.2699 204.328 58.6517C204.328 59.0361 204.385 59.388 204.499 59.7075C204.616 60.027 204.794 60.2828 205.033 60.475C205.275 60.6672 205.579 60.7633 205.945 60.7633Z" fill="#85BE54"/>
<path d="M36.0843 4.6891C18.394 19.3417 31.6123 29.8556 47.8171 28.398M47.8171 28.398C59.2489 27.3697 72.1671 20.3834 76.7682 4.6891C76.9714 -0.0247106 71.4656 -1.88227 47.8171 28.398ZM47.8171 28.398C37.608 38.9323 14.1729 57.1668 2.10482 45.8302C1.24136 43.4937 5.33515 40.2228 28.6179 45.8302C35.8303 47.6586 52.5712 49.1824 61.8355 40.6494" stroke="#131313" stroke-width="2.43799" stroke-linecap="round"/>
<path d="M74.3302 35.6211C70.3177 37.602 63.1459 42.8741 66.5591 48.1158C67.9305 49.6903 71.4046 50.1576 74.3302 39.4305" stroke="#131313" stroke-width="2.43799" stroke-linecap="round"/>
<path d="M193.315 34.8592C189.302 36.8401 182.131 42.1122 185.544 47.3539C186.915 48.9284 190.389 49.3957 193.315 38.6685" stroke="#131313" stroke-width="2.43799" stroke-linecap="round"/>
<path d="M104.938 33.6402C100.925 35.6211 93.7535 40.8932 97.1667 46.1349C98.5381 47.7094 102.012 48.1767 104.938 37.4496" stroke="#131313" stroke-width="2.43799" stroke-linecap="round"/>
<path d="M74.1779 39.4304C74.8889 44.9667 80.029 53.266 96.7292 40.9542" stroke="#131313" stroke-width="2.43799" stroke-linecap="round"/>
<path d="M193.162 38.6686C193.874 44.2048 199.014 52.5042 215.714 40.1923" stroke="#131313" stroke-width="2.43799" stroke-linecap="round"/>
<path d="M104.653 38.5162C104.653 38.8209 102.062 67.0102 96.7292 65.4864C94.2912 64.4198 93.5294 57.8372 109.986 40.0399" stroke="#131313" stroke-width="2.43799" stroke-linecap="round"/>
<path d="M109.986 40.1923C112.576 42.1224 119.067 44.3979 124.309 38.0591" stroke="#131313" stroke-width="2.43799" stroke-linecap="round"/>
<path d="M124.157 38.0591C121.769 44.0017 120.103 52.3823 132.537 38.3638" stroke="#131313" stroke-width="2.43799" stroke-linecap="round"/>
<path d="M132.232 38.6686C130.759 45.5762 133.299 55.3688 155.241 39.2781" stroke="#131313" stroke-width="2.43799" stroke-linecap="round"/>
<path d="M155.241 39.4304C154.936 41.8176 154.174 46.8358 153.565 47.811" stroke="#131313" stroke-width="2.43799" stroke-linecap="round"/>
<path d="M153.412 48.1158C153.717 47.9634 161.641 36.8401 164.536 40.9542C167.532 45.2715 175.903 51.4071 185.411 41.4113" stroke="#131313" stroke-width="2.43799" stroke-linecap="round"/>
<circle cx="215.581" cy="41.4113" r="4.41885" fill="#138131"/>
</svg>
