<svg width="26" height="26" viewBox="0 0 26 26" fill="none" xmlns="http://www.w3.org/2000/svg">
<path d="M21.9376 17.9904V8.00962C22.4921 7.86754 22.999 7.58128 23.4071 7.17989C23.8151 6.77851 24.1097 6.2763 24.2608 5.72425C24.412 5.17221 24.4144 4.59 24.2677 4.03674C24.1211 3.48348 23.8307 2.97887 23.426 2.57414C23.0213 2.16942 22.5166 1.87901 21.9634 1.73238C21.4101 1.58575 20.8279 1.58814 20.2759 1.73931C19.7238 1.89047 19.2216 2.18502 18.8202 2.59304C18.4188 3.00107 18.1326 3.50805 17.9905 4.0625H8.00975C7.86767 3.50805 7.5814 3.00107 7.18001 2.59304C6.77863 2.18502 6.27642 1.89047 5.72438 1.73931C5.17234 1.58814 4.59012 1.58575 4.03686 1.73238C3.4836 1.87901 2.97899 2.16942 2.57427 2.57414C2.16955 2.97887 1.87913 3.48348 1.7325 4.03674C1.58588 4.59 1.58827 5.17221 1.73943 5.72425C1.89059 6.2763 2.18514 6.77851 2.59317 7.17989C3.0012 7.58128 3.50817 7.86754 4.06262 8.00962V17.9904C3.50817 18.1325 3.0012 18.4187 2.59317 18.8201C2.18514 19.2215 1.89059 19.7237 1.73943 20.2757C1.58827 20.8278 1.58588 21.41 1.7325 21.9633C1.87913 22.5165 2.16955 23.0211 2.57427 23.4259C2.97899 23.8306 3.4836 24.121 4.03686 24.2676C4.59012 24.4142 5.17234 24.4119 5.72438 24.2607C6.27642 24.1095 6.77863 23.815 7.18001 23.407C7.5814 22.9989 7.86767 22.4919 8.00975 21.9375H17.9905C18.1326 22.4919 18.4188 22.9989 18.8202 23.407C19.2216 23.815 19.7238 24.1095 20.2759 24.2607C20.8279 24.4119 21.4101 24.4142 21.9634 24.2676C22.5166 24.121 23.0213 23.8306 23.426 23.4259C23.8307 23.0211 24.1211 22.5165 24.2677 21.9633C24.4144 21.41 24.412 20.8278 24.2608 20.2757C24.1097 19.7237 23.8151 19.2215 23.4071 18.8201C22.999 18.4187 22.4921 18.1325 21.9376 17.9904ZM21.1251 3.25C21.4465 3.25 21.7607 3.3453 22.0279 3.52386C22.2952 3.70242 22.5034 3.95621 22.6264 4.25314C22.7494 4.55007 22.7816 4.8768 22.7189 5.19202C22.6562 5.50724 22.5014 5.79679 22.2742 6.02405C22.0469 6.25131 21.7574 6.40607 21.4421 6.46878C21.1269 6.53148 20.8002 6.4993 20.5033 6.3763C20.2063 6.25331 19.9525 6.04503 19.774 5.7778C19.5954 5.51057 19.5001 5.19639 19.5001 4.875C19.5006 4.44415 19.6719 4.03108 19.9765 3.72643C20.2812 3.42177 20.6943 3.25043 21.1251 3.25ZM3.25012 4.875C3.25012 4.5536 3.34543 4.23943 3.52398 3.9722C3.70254 3.70497 3.95633 3.49669 4.25326 3.3737C4.55019 3.2507 4.87692 3.21852 5.19214 3.28122C5.50736 3.34392 5.79691 3.49869 6.02417 3.72595C6.25143 3.95321 6.4062 4.24276 6.4689 4.55798C6.5316 4.8732 6.49942 5.19993 6.37643 5.49686C6.25343 5.79379 6.04515 6.04758 5.77792 6.22614C5.51069 6.40469 5.19652 6.5 4.87512 6.5C4.44428 6.49957 4.0312 6.32823 3.72655 6.02357C3.42189 5.71892 3.25055 5.30584 3.25012 4.875ZM4.87512 22.75C4.55373 22.75 4.23955 22.6547 3.97232 22.4761C3.70509 22.2976 3.49681 22.0438 3.37382 21.7469C3.25082 21.4499 3.21864 21.1232 3.28135 20.808C3.34405 20.4928 3.49881 20.2032 3.72607 19.976C3.95333 19.7487 4.24288 19.5939 4.5581 19.5312C4.87332 19.4685 5.20005 19.5007 5.49698 19.6237C5.79391 19.7467 6.0477 19.955 6.22626 20.2222C6.40482 20.4894 6.50012 20.8036 6.50012 21.125C6.49969 21.5558 6.32835 21.9689 6.02369 22.2736C5.71904 22.5782 5.30597 22.7496 4.87512 22.75ZM17.9905 20.3125H8.00975C7.86421 19.7539 7.57229 19.2442 7.1641 18.836C6.75592 18.4278 6.24624 18.1359 5.68762 17.9904V8.00962C6.2462 7.86401 6.75584 7.57206 7.16401 7.16389C7.57219 6.75572 7.86413 6.24608 8.00975 5.6875H17.9905C18.136 6.24611 18.428 6.7558 18.8361 7.16398C19.2443 7.57217 19.754 7.86408 20.3126 8.00962V17.9904C19.754 18.1358 19.2442 18.4277 18.836 18.8359C18.4278 19.2441 18.136 19.7538 17.9905 20.3125ZM21.1251 22.75C20.8037 22.75 20.4895 22.6547 20.2223 22.4761C19.9551 22.2976 19.7468 22.0438 19.6238 21.7469C19.5008 21.4499 19.4686 21.1232 19.5313 20.808C19.594 20.4928 19.7488 20.2032 19.9761 19.976C20.2033 19.7487 20.4929 19.5939 20.8081 19.5312C21.1233 19.4685 21.4501 19.5007 21.747 19.6237C22.0439 19.7467 22.2977 19.955 22.4763 20.2222C22.6548 20.4894 22.7501 20.8036 22.7501 21.125C22.7495 21.5558 22.5781 21.9687 22.2735 22.2733C21.9689 22.5779 21.5559 22.7494 21.1251 22.75Z" fill="#85BE54"/>
</svg>
